# xmcd CD database file
# Copyright (C) 1993-1998 Ti Kan
#
# Track frame offsets:
#  182
#  16107
#  30855
#  44712
#  61095
#  75945
#  92340
#  108117
#  125650
#  139542
#
# Disc length: 2058 seconds
#
# Revision: 1
# Processed by: cddbd v1.4b41PL1 Copyright (c) Steve Scherf et al.
# Submitted via: KiC 2.1 - (C) 1996-1998 Alwin Hoogerdijk
#
DISCID=6708080a
DTITLE=JJ White - Janice and Jayne
DYEAR=1900
DGENRE=
TTITLE0=Have A Little Faith
TTITLE1=Jezebel Kane
TTITLE2=The Sweetest Love
TTITLE3=Cold Comfort
TTITLE4=Everyday
TTITLE5=Less Than Zero
TTITLE6=Heart Break Train
TTITLE7=The Crush
TTITLE8=Love Is Back In Style
TTITLE9=Holding On To Hope
EXTD=
EXTT0=
EXTT1=
EXTT2=
EXTT3=
EXTT4=
EXTT5=
EXTT6=
EXTT7=
EXTT8=
EXTT9=
PLAYORDER=
